<svg xmlns="http://www.w3.org/2000/svg" version="1.1" xmlns:xlink="http://www.w3.org/1999/xlink" xmlns:svgjs="http://svgjs.dev/svgjs" width="1000" height="1000"><g clip-path="url(#SvgjsClipPath1123)"><rect width="1000" height="1000" fill="#ffffff"></rect><g transform="matrix(2.25,0,0,2.25,50,50)"><svg xmlns="http://www.w3.org/2000/svg" version="1.1" xmlns:xlink="http://www.w3.org/1999/xlink" xmlns:svgjs="http://svgjs.dev/svgjs" width="400" height="400"><svg id="eF2a1XYTfp71" xmlns="http://www.w3.org/2000/svg" xmlns:xlink="http://www.w3.org/1999/xlink" viewBox="0 0 400 400" shape-rendering="geometricPrecision" text-rendering="geometricPrecision" project-id="f76b512b733c4d969b6130a9ba0119d5" export-id="2fdf549fb63f4be3bd3b212aff88f551" cached="false" style="background-color:#e3e3e3"><g transform="matrix(.1 0 0-.1-305.711255 831.720703)"><path d="M5998,7921l-206-6-44-30c-24-17-58-53-77-80-31-46-33-54-27-105c9-72,43-129,98-160c42-25,48-25,318-30c272-5,276-5,331-31c75-35,129-92,171-176l33-68l3-829c2-533-1-848-8-884-24-129-98-230-209-285l-66-32-270-5c-298-6-305-7-360-72-60-71-69-133-31-214c26-57,84-110,135-124c19-5,154-7,315-4l281,5l105,36c188,63,289,141,397,306c67,104,102,200,124,337c7,44,9,366,6,936-4,943-2,920-60,1064-39,96-87,168-162,245-56,56-89,80-165,117-185,91-248,100-632,89Z" transform="translate(-208.468415-14.412845)"></path><path d="M3830,7909c-150-25-280-97-395-221-85-91-136-187-171-323l-26-100v-903c1-917,2-950,39-1067c55-176,210-358,369-435c118-57,200-69,509-76l280-7l50,34c50,34,110,111,121,155c16,63-32,152-108,201l-43,28-270,5c-256,5-272,6-317,28-120,59-186,146-208,272-7,45-10,323-8,905l3,840l26,55c51,108,148,180,270,200c35,5,160,10,277,10c156,0,221,4,245,13c45,19,94,63,124,110c21,34,25,49,21,98-5,73-41,121-118,162l-52,27-282-1c-154-1-306-5-336-10Z" transform="translate(66.34326-52.88321)"></path><path d="M5149,7765c-14-8-39-31-55-52-15-21-69-81-119-133s-149-160-220-240c-72-80-170-188-219-240s-133-147-188-210c-54-63-148-171-209-240-150-169-164-195-164-291c0-69,3-80,35-132c50-80,265-320,492-552l198-200l32,36c18,20,45,56,60,80s59,79,98,121c50,54,69,82,63,92-7,13-72,84-370,414-100,110-133,162-103,162c5,0,38,34,72,76c98,120,256,303,318,369c31,33,81,87,111,120s61,67,69,75s62,67,120,130c287,314,310,343,310,391c0,47-119,189-185,220-47,22-110,24-146,4Z" transform="translate(-88.51074 38.049355)"></path><path d="M5475,7113c-55-65-119-142-142-172l-42-54l22-27c36-44,367-401,420-452l49-48-89-97c-49-54-145-165-213-248-68-82-214-253-323-379-164-188-314-366-430-510-42-52,28-174,123-215c67-29,137-37,185-21c43,14,138,105,226,215c31,39,90,107,130,151c155,171,345,384,381,425c20,24,70,85,111,134c41,50,135,159,210,244c155,175,177,211,177,297c0,76-14,102-125,238-132,160-166,198-320,362-77,82-165,177-195,212l-56,63-99-118Z" transform="translate(4.10943-39.775835)"></path><path d="M5015,6559c-113-56-160-168-123-291c15-51,77-121,131-147c51-25,141-28,190-7c38,16,114,97,133,143c45,106-12,250-119,302-58,28-156,28-212,0Z" transform="translate(.000001 0)"></path></g></svg></svg></g></g><defs><clipPath id="SvgjsClipPath1123"><rect width="1000" height="1000" x="0" y="0" rx="350" ry="350"></rect></clipPath></defs></svg>